<svg width="238" height="309" viewBox="0 0 238 309" fill="none" xmlns="http://www.w3.org/2000/svg">
<path d="M14 0H224V309H14V0Z" fill="#515151"/>
<g filter="url(#filter0_b_184_101)">
<path d="M21 7H217V52H21V7Z" fill="black" fill-opacity="0.17"/>
</g>
<path d="M10 183H228V309H10V183Z" fill="#2F2F2F"/>
<path d="M21 60H217V157H21V60Z" fill="#2C2C2C"/>
<rect x="55" y="174" width="2" height="9" fill="#8C8C8C"/>
<rect x="21" y="239" width="148" height="59" rx="4" fill="#ACACAC"/>
<rect x="199" y="239" width="18" height="35" rx="2" fill="#D9D9D9"/>
<rect x="206" y="244" width="4" height="16" fill="black"/>
<rect x="139" y="179" width="16" height="4" fill="#9A0B0B"/>
<rect x="179" y="179" width="16" height="4" fill="#9A0B0B"/>
<rect x="52" y="168" width="8" height="8" rx="4" fill="#8D0A0A"/>
<path d="M0 183H10V232.5L0 222V183Z" fill="#2F2F2F"/>
<path d="M238 183H228V233L238 222.394V183Z" fill="#2F2F2F"/>
<rect y="183" width="238" height="2" fill="#AF8927"/>
<rect x="205" y="267" width="6" height="1" rx="0.5" fill="#686868"/>
<rect x="24" y="242" width="2" height="2" rx="1" fill="#D9D9D9"/>
<rect x="24" y="293" width="2" height="2" rx="1" fill="#D9D9D9"/>
<rect x="164" y="293" width="2" height="2" rx="1" fill="#D9D9D9"/>
<rect x="164" y="242" width="2" height="2" rx="1" fill="#D9D9D9"/>
<rect x="29" y="10" width="3" height="3" rx="1.5" fill="#5F5F5F"/>
<rect x="29" y="19" width="3" height="3" rx="1.5" fill="#5F5F5F"/>
<rect x="29" y="28" width="3" height="3" rx="1.5" fill="#5F5F5F"/>
<rect x="29" y="37" width="3" height="3" rx="1.5" fill="#5F5F5F"/>
<rect x="29" y="46" width="3" height="3" rx="1.5" fill="#5F5F5F"/>
<rect x="40" y="10" width="3" height="3" rx="1.5" fill="#5F5F5F"/>
<rect x="40" y="19" width="3" height="3" rx="1.5" fill="#5F5F5F"/>
<rect x="40" y="28" width="3" height="3" rx="1.5" fill="#5F5F5F"/>
<rect x="40" y="37" width="3" height="3" rx="1.5" fill="#5F5F5F"/>
<rect x="40" y="46" width="3" height="3" rx="1.5" fill="#5F5F5F"/>
<rect x="51" y="10" width="3" height="3" rx="1.5" fill="#5F5F5F"/>
<rect x="51" y="19" width="3" height="3" rx="1.5" fill="#5F5F5F"/>
<rect x="51" y="28" width="3" height="3" rx="1.5" fill="#5F5F5F"/>
<rect x="51" y="37" width="3" height="3" rx="1.5" fill="#5F5F5F"/>
<rect x="51" y="46" width="3" height="3" rx="1.5" fill="#5F5F5F"/>
<rect x="62" y="10" width="3" height="3" rx="1.5" fill="#5F5F5F"/>
<rect x="62" y="19" width="3" height="3" rx="1.5" fill="#5F5F5F"/>
<rect x="62" y="28" width="3" height="3" rx="1.5" fill="#5F5F5F"/>
<rect x="62" y="37" width="3" height="3" rx="1.5" fill="#5F5F5F"/>
<rect x="62" y="46" width="3" height="3" rx="1.5" fill="#5F5F5F"/>
<rect x="73" y="10" width="3" height="3" rx="1.5" fill="#5F5F5F"/>
<rect x="73" y="19" width="3" height="3" rx="1.5" fill="#5F5F5F"/>
<rect x="73" y="28" width="3" height="3" rx="1.5" fill="#5F5F5F"/>
<rect x="73" y="37" width="3" height="3" rx="1.5" fill="#5F5F5F"/>
<rect x="73" y="46" width="3" height="3" rx="1.5" fill="#5F5F5F"/>
<rect x="84" y="10" width="3" height="3" rx="1.5" fill="#5F5F5F"/>
<rect x="84" y="19" width="3" height="3" rx="1.5" fill="#5F5F5F"/>
<rect x="84" y="28" width="3" height="3" rx="1.5" fill="#5F5F5F"/>
<rect x="84" y="37" width="3" height="3" rx="1.5" fill="#5F5F5F"/>
<rect x="84" y="46" width="3" height="3" rx="1.5" fill="#5F5F5F"/>
<rect x="95" y="10" width="3" height="3" rx="1.5" fill="#5F5F5F"/>
<rect x="95" y="19" width="3" height="3" rx="1.5" fill="#5F5F5F"/>
<rect x="95" y="28" width="3" height="3" rx="1.5" fill="#5F5F5F"/>
<rect x="95" y="37" width="3" height="3" rx="1.5" fill="#5F5F5F"/>
<rect x="95" y="46" width="3" height="3" rx="1.5" fill="#5F5F5F"/>
<rect x="106" y="10" width="3" height="3" rx="1.5" fill="#5F5F5F"/>
<rect x="106" y="19" width="3" height="3" rx="1.5" fill="#5F5F5F"/>
<rect x="106" y="28" width="3" height="3" rx="1.5" fill="#5F5F5F"/>
<rect x="106" y="37" width="3" height="3" rx="1.5" fill="#5F5F5F"/>
<rect x="106" y="46" width="3" height="3" rx="1.5" fill="#5F5F5F"/>
<rect x="117" y="10" width="3" height="3" rx="1.5" fill="#5F5F5F"/>
<rect x="117" y="19" width="3" height="3" rx="1.5" fill="#5F5F5F"/>
<rect x="117" y="28" width="3" height="3" rx="1.5" fill="#5F5F5F"/>
<rect x="117" y="37" width="3" height="3" rx="1.5" fill="#5F5F5F"/>
<rect x="117" y="46" width="3" height="3" rx="1.5" fill="#5F5F5F"/>
<rect x="128" y="10" width="3" height="3" rx="1.5" fill="#5F5F5F"/>
<rect x="128" y="19" width="3" height="3" rx="1.5" fill="#5F5F5F"/>
<rect x="128" y="28" width="3" height="3" rx="1.5" fill="#5F5F5F"/>
<rect x="128" y="37" width="3" height="3" rx="1.5" fill="#5F5F5F"/>
<rect x="128" y="46" width="3" height="3" rx="1.5" fill="#5F5F5F"/>
<rect x="139" y="10" width="3" height="3" rx="1.5" fill="#5F5F5F"/>
<rect x="139" y="19" width="3" height="3" rx="1.5" fill="#5F5F5F"/>
<rect x="139" y="28" width="3" height="3" rx="1.5" fill="#5F5F5F"/>
<rect x="139" y="37" width="3" height="3" rx="1.5" fill="#5F5F5F"/>
<rect x="139" y="46" width="3" height="3" rx="1.5" fill="#5F5F5F"/>
<rect x="150" y="10" width="3" height="3" rx="1.5" fill="#5F5F5F"/>
<rect x="150" y="19" width="3" height="3" rx="1.5" fill="#5F5F5F"/>
<rect x="150" y="28" width="3" height="3" rx="1.5" fill="#5F5F5F"/>
<rect x="150" y="37" width="3" height="3" rx="1.5" fill="#5F5F5F"/>
<rect x="150" y="46" width="3" height="3" rx="1.5" fill="#5F5F5F"/>
<rect x="161" y="10" width="3" height="3" rx="1.5" fill="#5F5F5F"/>
<rect x="161" y="19" width="3" height="3" rx="1.5" fill="#5F5F5F"/>
<rect x="161" y="28" width="3" height="3" rx="1.5" fill="#5F5F5F"/>
<rect x="161" y="37" width="3" height="3" rx="1.5" fill="#5F5F5F"/>
<rect x="161" y="46" width="3" height="3" rx="1.5" fill="#5F5F5F"/>
<rect x="172" y="10" width="3" height="3" rx="1.5" fill="#5F5F5F"/>
<rect x="172" y="19" width="3" height="3" rx="1.5" fill="#5F5F5F"/>
<rect x="172" y="28" width="3" height="3" rx="1.5" fill="#5F5F5F"/>
<rect x="172" y="37" width="3" height="3" rx="1.5" fill="#5F5F5F"/>
<rect x="172" y="46" width="3" height="3" rx="1.5" fill="#5F5F5F"/>
<rect x="183" y="10" width="3" height="3" rx="1.5" fill="#5F5F5F"/>
<rect x="183" y="19" width="3" height="3" rx="1.5" fill="#5F5F5F"/>
<rect x="183" y="28" width="3" height="3" rx="1.5" fill="#5F5F5F"/>
<rect x="183" y="37" width="3" height="3" rx="1.5" fill="#5F5F5F"/>
<rect x="183" y="46" width="3" height="3" rx="1.5" fill="#5F5F5F"/>
<rect x="194" y="10" width="3" height="3" rx="1.5" fill="#5F5F5F"/>
<rect x="194" y="19" width="3" height="3" rx="1.5" fill="#5F5F5F"/>
<rect x="194" y="28" width="3" height="3" rx="1.5" fill="#5F5F5F"/>
<rect x="194" y="37" width="3" height="3" rx="1.5" fill="#5F5F5F"/>
<rect x="194" y="46" width="3" height="3" rx="1.5" fill="#5F5F5F"/>
<rect x="205" y="10" width="3" height="3" rx="1.5" fill="#5F5F5F"/>
<rect x="205" y="19" width="3" height="3" rx="1.5" fill="#5F5F5F"/>
<rect x="205" y="28" width="3" height="3" rx="1.5" fill="#5F5F5F"/>
<rect x="205" y="37" width="3" height="3" rx="1.5" fill="#5F5F5F"/>
<rect x="205" y="46" width="3" height="3" rx="1.5" fill="#5F5F5F"/>
<rect x="5" y="190" width="228" height="31" fill="#D9D9D9"/>
<path d="M3 0H21V83.5L3 60V0Z" fill="#515151"/>
<path d="M235 0H217V83L235 59.6407V0Z" fill="#515151"/>
<defs>
<filter id="filter0_b_184_101" x="-163" y="-177" width="564" height="413" filterUnits="userSpaceOnUse" color-interpolation-filters="sRGB">
<feFlood flood-opacity="0" result="BackgroundImageFix"/>
<feGaussianBlur in="BackgroundImageFix" stdDeviation="92"/>
<feComposite in2="SourceAlpha" operator="in" result="effect1_backgroundBlur_184_101"/>
<feBlend mode="normal" in="SourceGraphic" in2="effect1_backgroundBlur_184_101" result="shape"/>
</filter>
</defs>
</svg>
